/* XPM */
static char * FaustWorks_xpm[] = {
"32 32 475 2",
"  	c None",
". 	c #0D11AE",
"+ 	c #0D10B1",
"@ 	c #0D10B2",
"# 	c #0C0FB1",
"$ 	c #0C0FB0",
"% 	c #0C0EB0",
"& 	c #0B0EB0",
"* 	c #0B0DB0",
"= 	c #0B0DAF",
"- 	c #0B0CAE",
"; 	c #0B0BAC",
"> 	c #0E14A7",
", 	c #2567EA",
"' 	c #2C8DFE",
") 	c #2A89FE",
"! 	c #2686FF",
"~ 	c #2483FE",
"{ 	c #2180FE",
"] 	c #1E7CFF",
"^ 	c #1C79FE",
"/ 	c #1A76FE",
"( 	c #1772FE",
"_ 	c #156DFE",
": 	c #1369FE",
"< 	c #1165FE",
"[ 	c #0F60FE",
"} 	c #0D5CFE",
"| 	c #0C58FF",
"1 	c #0A53FF",
"2 	c #094EFF",
"3 	c #0849FF",
"4 	c #0644FF",
"5 	c #063EFF",
"6 	c #0439FF",
"7 	c #0333FF",
"8 	c #032DFF",
"9 	c #0227FF",
"0 	c #0221FF",
"a 	c #011CFF",
"b 	c #0115FF",
"c 	c #000EFF",
"d 	c #0208EB",
"e 	c #0B0BA8",
"f 	c #0E13AA",
"g 	c #2977F6",
"h 	c #2B8CFE",
"i 	c #084EFF",
"j 	c #094EF9",
"k 	c #0C76C4",
"l 	c #0C6BCB",
"m 	c #0D87A7",
"n 	c #0648E8",
"o 	c #0433F9",
"p 	c #0008FE",
"q 	c #0B0BB0",
"r 	c #1E7CFE",
"s 	c #0C71D3",
"t 	c #13A68C",
"u 	c #10989B",
"v 	c #0E7FB4",
"w 	c #0C74BC",
"x 	c #11A384",
"y 	c #109C8A",
"z 	c #1368FE",
"A 	c #1194AA",
"B 	c #119C9D",
"C 	c #0D75C9",
"D 	c #0647FC",
"E 	c #0438FA",
"F 	c #0E86A1",
"G 	c #0E8B99",
"H 	c #0748D8",
"I 	c #0114FF",
"J 	c #2877F5",
"K 	c #0E6FE0",
"L 	c #12A397",
"M 	c #0C73D0",
"N 	c #0E899B",
"O 	c #0B6CB4",
"P 	c #0221FA",
"Q 	c #1084C5",
"R 	c #118BB5",
"S 	c #084FFE",
"T 	c #0438FF",
"U 	c #053BEB",
"V 	c #0D81A0",
"W 	c #032FED",
"X 	c #1291B2",
"Y 	c #1085BD",
"Z 	c #022AFC",
"` 	c #0D7FA1",
" .	c #074AD1",
"..	c #1183C4",
"+.	c #1197A6",
"@.	c #032DF9",
"#.	c #0F9090",
"$.	c #0539E1",
"%.	c #2383FE",
"&.	c #128EB5",
"*.	c #129CA0",
"=.	c #0952FA",
"-.	c #053EFF",
";.	c #0645E0",
">.	c #119B84",
",.	c #0430EB",
"'.	c #1771FE",
").	c #0D60F3",
"!.	c #118CB4",
"~.	c #0432FA",
"{.	c #0D7EA6",
"].	c #0C70B0",
"^.	c #0A61BB",
"/.	c #0A5FB8",
"(.	c #0642CF",
"_.	c #0D5BFF",
":.	c #0C57FF",
"<.	c #108AB7",
"[.	c #119B9E",
"}.	c #0E7EBF",
"|.	c #0856E9",
"1.	c #0439FE",
"2.	c #074EE1",
"3.	c #0F899E",
"4.	c #0D82A1",
"5.	c #0E819F",
"6.	c #0C75A7",
"7.	c #0D77A1",
"8.	c #0855BE",
"9.	c #2686FE",
"0.	c #0A52FF",
"a.	c #0C6ADB",
"b.	c #12A095",
"c.	c #10959E",
"d.	c #10969A",
"e.	c #0E8DA1",
"f.	c #109694",
"g.	c #109295",
"h.	c #085EC7",
"i.	c #12A27E",
"j.	c #0431EA",
"k.	c #0532E2",
"l.	c #119B7E",
"m.	c #063FCD",
"n.	c #1975FF",
"o.	c #0B68D4",
"p.	c #085BDD",
"q.	c #0B72BE",
"r.	c #0540F1",
"s.	c #0226FF",
"t.	c #0859C7",
"u.	c #0E829B",
"v.	c #0E8298",
"w.	c #0643CE",
"x.	c #0007FE",
"y.	c #0643FF",
"z.	c #074FD5",
"A.	c #095BC4",
"B.	c #0C76A7",
"C.	c #0852C5",
"D.	c #0431DF",
"E.	c #2889FE",
"F.	c #0848FF",
"G.	c #0647EA",
"H.	c #0E82A5",
"I.	c #0D7EA5",
"J.	c #0D80A1",
"K.	c #0E819C",
"L.	c #0C72A6",
"M.	c #0B68AC",
"N.	c #1C78FE",
"O.	c #0541F6",
"P.	c #085DD1",
"Q.	c #0E81A6",
"R.	c #0855CF",
"S.	c #0221F9",
"T.	c #084ACC",
"U.	c #0D779E",
"V.	c #0530D9",
"W.	c #1164FE",
"X.	c #0962D0",
"Y.	c #109595",
"Z.	c #0747E2",
"`.	c #011BFF",
" +	c #0850C2",
".+	c #108E86",
"++	c #2B8BFE",
"@+	c #084DFF",
"#+	c #0B6DC4",
"$+	c #0E85A5",
"%+	c #032CFF",
"&+	c #0328E6",
"*+	c #0D749D",
"=+	c #0E2B9D",
"-+	c #51A0FE",
";+	c #5CA4FE",
">+	c #4998FE",
",+	c #4996FE",
"'+	c #3B87FE",
")+	c #2271FE",
"!+	c #2773FE",
"~+	c #1463FE",
"{+	c #4E87FF",
"]+	c #4A82FF",
"^+	c #2364FF",
"/+	c #467AFF",
"(+	c #4676FF",
"_+	c #4472FF",
":+	c #154AFF",
"<+	c #0B71C0",
"[+	c #0D80AB",
"}+	c #0013FF",
"|+	c #0325EA",
"1+	c #0C6FA1",
"2+	c #0D309A",
"3+	c #AFD3FF",
"4+	c #5AA3FE",
"5+	c #4797FE",
"6+	c #388DFE",
"7+	c #D2E5FF",
"8+	c #3D8CFE",
"9+	c #9FC4FF",
"0+	c #498BFF",
"a+	c #669BFE",
"b+	c #95B9FF",
"c+	c #4883FF",
"d+	c #5086FF",
"e+	c #2565FF",
"f+	c #4378FF",
"g+	c #B2C6FF",
"h+	c #4270FF",
"i+	c #1449FF",
"j+	c #085ED4",
"k+	c #109594",
"l+	c #0641E8",
"m+	c #0747CA",
"n+	c #0F898A",
"o+	c #BAD9FF",
"p+	c #91C2FE",
"q+	c #5AA2FE",
"r+	c #88BBFE",
"s+	c #3C8EFE",
"t+	c #8DBBFE",
"u+	c #81ABFE",
"v+	c #91B4FF",
"w+	c #467FFF",
"x+	c #99B4FF",
"y+	c #0642F3",
"z+	c #085FCE",
"A+	c #0647DD",
"B+	c #011DFD",
"C+	c #053DD8",
"D+	c #0D7F97",
"E+	c #0534D6",
"F+	c #A6CEFF",
"G+	c #C8DFFF",
"H+	c #96C2FF",
"I+	c #CAE0FF",
"J+	c #1C77FF",
"K+	c #4E8EFF",
"L+	c #6098FE",
"M+	c #2269FF",
"N+	c #A0BDFF",
"O+	c #3A74FF",
"P+	c #0437FF",
"Q+	c #0648E7",
"R+	c #0E87A0",
"S+	c #0E869D",
"T+	c #0D7EA2",
"U+	c #0E7F9D",
"V+	c #0D7B9D",
"W+	c #0B6DA7",
"X+	c #5BA3FE",
"Y+	c #6FACFF",
"Z+	c #1D7CFE",
"`+	c #5E9FFE",
" @	c #5F9FFF",
".@	c #90BBFF",
"+@	c #71A6FE",
"@@	c #A3C4FF",
"#@	c #2873FE",
"$@	c #72A1FE",
"%@	c #6496FF",
"&@	c #A4BFFF",
"*@	c #2867FF",
"=@	c #0332FF",
"-@	c #0852D2",
";@	c #0642DE",
">@	c #095DBE",
",@	c #0222F1",
"'@	c #000DFF",
")@	c #2D8CFE",
"!@	c #66ABFE",
"~@	c #2887FE",
"{@	c #4294FE",
"]@	c #4393FF",
"^@	c #589BFE",
"/@	c #1E78FF",
"(@	c #2278FE",
"_@	c #629DFE",
":@	c #4287FF",
"<@	c #1C68FE",
"[@	c #6597FF",
"}@	c #4980FF",
"|@	c #165AFF",
"1@	c #366AFF",
"2@	c #285DFF",
"3@	c #073FFF",
"4@	c #446AFF",
"5@	c #1742FF",
"6@	c #173DFF",
"7@	c #435EFF",
"8@	c #3049FF",
"9@	c #011AFF",
"0@	c #E6F1FF",
"a@	c #4E9CFE",
"b@	c #B9D7FF",
"c@	c #C3DCFF",
"d@	c #3A8DFE",
"e@	c #EEF5FF",
"f@	c #277EFF",
"g@	c #DEEBFF",
"h@	c #A9C9FF",
"i@	c #D4E4FF",
"j@	c #88B2FF",
"k@	c #3378FE",
"l@	c #FBFCFF",
"m@	c #AAC4FF",
"n@	c #F1F5FF",
"o@	c #1D5CFF",
"p@	c #9DB7FF",
"q@	c #89A6FF",
"r@	c #ABBEFF",
"s@	c #99ADFF",
"t@	c #103DFF",
"u@	c #E9EDFF",
"v@	c #91A1FF",
"w@	c #ACB6FF",
"x@	c #B1D4FF",
"y@	c #84BAFE",
"z@	c #CFE4FF",
"A@	c #CBE1FF",
"B@	c #77B0FE",
"C@	c #B8D5FF",
"D@	c #69A5FF",
"E@	c #D2E4FF",
"F@	c #4488FF",
"G@	c #EFF5FF",
"H@	c #F8FAFF",
"I@	c #6594FF",
"J@	c #E9EFFF",
"K@	c #1757FF",
"L@	c #EEF2FF",
"M@	c #ADBFFF",
"N@	c #0739FF",
"O@	c #123EFF",
"P@	c #EFF2FF",
"Q@	c #97A6FF",
"R@	c #495FFF",
"S@	c #81BAFE",
"T@	c #D5E8FF",
"U@	c #ADD0FF",
"V@	c #A1C9FF",
"W@	c #D4E6FF",
"X@	c #85B6FE",
"Y@	c #66A3FF",
"Z@	c #D6E6FF",
"`@	c #488AFF",
" #	c #ECF3FF",
".#	c #FAFCFF",
"+#	c #9BB9FF",
"@#	c #D1DEFF",
"##	c #1053FF",
"$#	c #D7E1FF",
"%#	c #DEE5FF",
"&#	c #234FFF",
"*#	c #6F84FF",
"=#	c #F2F4FF",
"-#	c #2F43FF",
";#	c #4C9DFE",
">#	c #FFFFFF",
",#	c #78B2FE",
"'#	c #6AAAFF",
")#	c #4E96FE",
"!#	c #1F78FE",
"~#	c #C8DEFF",
"{#	c #BFD7FF",
"]#	c #DAE7FF",
"^#	c #71A3FE",
"/#	c #F6F9FF",
"(#	c #0C56FF",
"_#	c #C0D2FF",
":#	c #749AFF",
"<#	c #84A2FF",
"[#	c #5D81FF",
"}#	c #E3E9FF",
"|#	c #4164FF",
"1#	c #C8D1FF",
"2#	c #B0BBFF",
"3#	c #E8EBFF",
"4#	c #162DFF",
"5#	c #2989FE",
"6#	c #348EFE",
"7#	c #2784FE",
"8#	c #2381FF",
"9#	c #2C85FE",
"0#	c #1E79FE",
"a#	c #1874FE",
"b#	c #1972FE",
"c#	c #2F7DFE",
"d#	c #2272FF",
"e#	c #1261FE",
"f#	c #1C65FE",
"g#	c #1257FF",
"h#	c #1455FF",
"i#	c #124FFF",
"j#	c #0F49FF",
"k#	c #053DFF",
"l#	c #1242FF",
"m#	c #0C39FF",
"n#	c #1138FF",
"o#	c #2443FF",
"p#	c #0D2AFF",
"q#	c #0006FD",
"r#	c #0D13A1",
"s#	c #1C46D4",
"t#	c #2369EC",
"u#	c #2168EB",
"v#	c #1F65EB",
"w#	c #1D63EB",
"x#	c #1B60E9",
"y#	c #195EE9",
"z#	c #175CE8",
"A#	c #1559E8",
"B#	c #1456E8",
"C#	c #1253E6",
"D#	c #1150E5",
"E#	c #104DE5",
"F#	c #0E4AE4",
"G#	c #0D46E5",
"H#	c #0C43E4",
"I#	c #0B3FE2",
"J#	c #093BE2",
"K#	c #0937E2",
"L#	c #0834E1",
"M#	c #0730E1",
"N#	c #072BDF",
"O#	c #0628DF",
"P#	c #0524DE",
"Q#	c #041FDE",
"R#	c #041BDD",
"S#	c #0417DC",
"T#	c #0312DC",
"U#	c #030DDB",
"V#	c #0508C4",
"W#	c #0A0AA1",
"X#	c #0C119D",
"Y#	c #0C12A4",
"Z#	c #0B12A4",
"`#	c #0B11A2",
" $	c #0B11A1",
".$	c #0B10A1",
"+$	c #0A10A0",
"@$	c #0A10A1",
"#$	c #0A0FA1",
"$$	c #0A0FA0",
"%$	c #0A0F9F",
"&$	c #090E9F",
"*$	c #090E9E",
"=$	c #090D9E",
"-$	c #090D9D",
";$	c #090B9D",
">$	c #090B9C",
",$	c #090A9D",
"'$	c #0A0A98",
"  . + @ @ @ # # # $ $ $ % % % % & & * * = = = = = = - - - - ;   ",
"> , ' ) ! ~ { ] ^ / ( _ : < [ } | 1 2 3 4 5 6 7 8 9 0 a b c d e ",
"f g h ) ! ~ { ] ^ / ( _ : < [ } | 1 i j k l m n o 9 0 a b c p q ",
"f g h ) ! ~ { r ^ / ( _ : < [ } | 1 s t u v w x y 9 0 a b c p q ",
"f g h ) ! ~ { r ^ / ( _ z < [ } | A B C D 5 6 E F G H a I c p q ",
"f J h ) ! ~ { r ^ / ( _ z < [ } K L M 3 4 5 6 7 8 N O P I c p q ",
"f J h ) ! ~ { r ^ / ( _ z < [ } Q R S 3 4 5 T 7 8 U V W I c p q ",
"f J h ) ! ~ { r ^ / ( _ z < [ } X Y i 3 4 5 T 7 8 Z `  .I c p q ",
"f J h ) ! ~ { r ^ / ( _ z < [ } ..+.i 3 4 5 T 7 8 @.#.$.I c p q ",
"f J h ) ! %.{ r ^ / ( _ z < [ } &.*.=.3 4 -.T 7 8 ;.>.,.I c p q ",
"f J h ) ! %.{ r ^ / '._ z < [ } ).!.s 3 4 -.T 7 ~.{.].^./.(.p q ",
"f J h ) ! %.{ r ^ / '._ z < [ _.:.<.[.}.|.-.1.2.3.4.5.6.7.8.p q ",
"f J h ) 9.%.{ r ^ / '._ z < [ _.:.0.a.b.c.d.e.f.g.h.i.j.k.l.m.q ",
"f J h ) 9.%.{ r ^ n.'._ z < [ _.:.0.i 3 o.p.q.r.8 s.t.u.v.w.x.q ",
"f J h ) 9.%.{ r ^ n.'._ z < [ _.:.0.i 3 y.-.T 7 8 z.A.B.C.D.x.q ",
"f J h E.9.%.{ r ^ n.'._ z < [ _.:.0.i F.y.-.T G.H.I.J.K.L.M.x.q ",
"f J h E.9.%.{ r N.n.'._ z < [ _.:.0.i F.y.-.O.P.Q.R.0 S.T.U.V.q ",
"f J h E.9.%.{ r N.n.'._ z W.[ _.:.0.i F.y.-.X.Y.Z.s.0 `.I  +.+- ",
"f J ++E.9.%.{ r N.n.'._ z W.[ _.:.0.@+F.y.-.#+$+%+s.0 `.I &+*+=+",
"f J ++-+;+>+{ ,+N.n.'+_ )+!+~+{+]+^+/+(+_+:+<+[+%+s.0 `.}+|+1+2+",
"f J ++3+4+5+6+7+8+n.9+_ 0+a+b+c+d+e+f+g+h+i+j+k+l+s.0 `.}+m+n+- ",
"f J ++o+p+q+r+s+t+n.9+_ 0+a+u+v+w+0.@+x+y.-.y+z+H.A+0 B+C+D+E+q ",
"f J ++F+9.~ G+H+I+J+9+_ K+L+[ M+N+O+@+x+y.-.P+Q+R+S+T+U+V+W+x.q ",
"f J ++F+9.X+Y+Z+`+ @.@+@@@#@$@%@&@*@@+x+y.-.P+=@%+-@;@>@,@'@x.q ",
"f J )@!@~@{@]@Z+^@/@(@_@:@W.<@[@}@|@@+1@2@3@4@5@6@7@8@9@}+'@x.q ",
"f J ++0@a@b@c@d@e@f@g@h@i@j@k@l@m@n@o@p@q@r@s@t@u@v@w@9@}+'@x.q ",
"f J ++x@y@z@A@B@C@D@E@_ F@G@k@H@I@J@K@p@L@M@N@O@P@Q@R@9@}+'@x.q ",
"f J ++S@T@U@V@W@X@Y@Z@_ `@ #k@.#+#@###p@$#%#&#=@6@*#=#-#}+'@x.q ",
"f J ++;#>#,#'#>#)#!#~#{#]#^#k@/#(#_#:#p@<#[#}#|#1#2#3#4#}+'@x.q ",
"f J ++5#6#7#8#9#0#a#b#c#d#W.e#f#(#g#h#i#j#k#l#m#n#o#p#9@}+'@q#q ",
"r#s#t#u#v#w#x#y#z#A#B#C#D#E#F#G#H#I#J#K#L#M#N#O#P#Q#R#S#T#U#V#W#",
"  X#Y#Y#Z#`#`# $ $.$+$+$@$#$#$#$$$$$$$%$&$*$=$-$-$;$>$>$,$,$'$  "};
