<?xml version="1.0" encoding="UTF-8" standalone="no"?>
<!-- Created with Inkscape (http://www.inkscape.org/) -->

<svg
   xmlns:dc="http://purl.org/dc/elements/1.1/"
   xmlns:cc="http://creativecommons.org/ns#"
   xmlns:rdf="http://www.w3.org/1999/02/22-rdf-syntax-ns#"
   xmlns:svg="http://www.w3.org/2000/svg"
   xmlns="http://www.w3.org/2000/svg"
   xmlns:xlink="http://www.w3.org/1999/xlink"
   xmlns:sodipodi="http://sodipodi.sourceforge.net/DTD/sodipodi-0.dtd"
   xmlns:inkscape="http://www.inkscape.org/namespaces/inkscape"
   width="260"
   height="260"
   id="svg4238"
   version="1.1"
   inkscape:version="0.47pre4 r22446"
   sodipodi:docname="faustworks-icon.svg">
  <defs
     id="defs4240">
    <inkscape:perspective
       sodipodi:type="inkscape:persp3d"
       inkscape:vp_x="0 : 526.18109 : 1"
       inkscape:vp_y="0 : 1000 : 0"
       inkscape:vp_z="744.09448 : 526.18109 : 1"
       inkscape:persp3d-origin="372.04724 : 350.78739 : 1"
       id="perspective4246" />
    <inkscape:perspective
       id="perspective4207"
       inkscape:persp3d-origin="0.5 : 0.33333333 : 1"
       inkscape:vp_z="1 : 0.5 : 1"
       inkscape:vp_y="0 : 1000 : 0"
       inkscape:vp_x="0 : 0.5 : 1"
       sodipodi:type="inkscape:persp3d" />
    <linearGradient
       id="linearGradient3885">
      <stop
         style="stop-color:#3daffe;stop-opacity:1;"
         offset="0"
         id="stop3887" />
      <stop
         style="stop-color:#00ffff;stop-opacity:0;"
         offset="1"
         id="stop3889" />
    </linearGradient>
    <linearGradient
       inkscape:collect="always"
       xlink:href="#linearGradient3885"
       id="linearGradient4353"
       gradientUnits="userSpaceOnUse"
       gradientTransform="translate(-392.42859,273.52275)"
       x1="395"
       y1="647.69653"
       x2="649"
       y2="649.69653" />
  </defs>
  <sodipodi:namedview
     id="base"
     pagecolor="#ffffff"
     bordercolor="#666666"
     borderopacity="1.0"
     inkscape:pageopacity="0.0"
     inkscape:pageshadow="2"
     inkscape:zoom="2"
     inkscape:cx="155.46774"
     inkscape:cy="117.39394"
     inkscape:document-units="px"
     inkscape:current-layer="layer1"
     showgrid="false"
     inkscape:window-width="1061"
     inkscape:window-height="822"
     inkscape:window-x="0"
     inkscape:window-y="25"
     inkscape:window-maximized="0" />
  <metadata
     id="metadata4243">
    <rdf:RDF>
      <cc:Work
         rdf:about="">
        <dc:format>image/svg+xml</dc:format>
        <dc:type
           rdf:resource="http://purl.org/dc/dcmitype/StillImage" />
        <dc:title></dc:title>
      </cc:Work>
    </rdf:RDF>
  </metadata>
  <g
     inkscape:label="Calque 1"
     inkscape:groupmode="layer"
     id="layer1"
     transform="translate(0,-792.36218)">
    <path
       style="fill:#0000ff;fill-rule:evenodd;stroke:#000019;stroke-width:5.9209547;stroke-linecap:butt;stroke-linejoin:round;stroke-miterlimit:4;stroke-opacity:1"
       d="m 16.18607,796.1798 228.77071,0 c 5.90241,0 10.65417,4.75176 10.65417,10.65417 l 0,228.77073 c 0,5.9024 -4.75176,10.6541 -10.65417,10.6541 l -228.77071,0 c -5.90241,0 -10.65417,-4.7517 -10.65417,-10.6541 l 0,-228.77073 c 0,-5.90241 4.75176,-10.65417 10.65417,-10.65417 z"
       id="rect2951" />
    <path
       style="opacity:0.83388702;fill:url(#linearGradient4353);fill-opacity:1;fill-rule:evenodd;stroke:#0e0ec8;stroke-width:8;stroke-linecap:butt;stroke-linejoin:round;stroke-miterlimit:4;stroke-opacity:1"
       d="m 16.18607,796.1798 228.77071,0 c 5.90241,0 10.65417,4.75176 10.65417,10.65417 l 0,228.77073 c 0,5.9024 -4.75176,10.6541 -10.65417,10.6541 l -228.77071,0 c -5.90241,0 -10.65417,-4.7517 -10.65417,-10.6541 l 0,-228.77073 c 0,-5.90241 4.75176,-10.65417 10.65417,-10.65417 z"
       id="rect3851" />
    <g
       id="text2953"
       style="font-size:40px;font-style:normal;font-weight:normal;fill:#ffffff;fill-opacity:1;stroke:none;font-family:Bitstream Vera Sans"
       transform="translate(-392.49859,273.45275)">
      <path
         id="path3929"
         style="font-size:48px"
         d="m 418.71094,679.37 20.10937,0 0,3.98437 -15.375,0 0,10.3125 13.875,0 0,3.98438 -13.875,0 0,16.71093 -4.73437,0 0,-34.99218" />
      <path
         id="path3931"
         style="font-size:48px"
         d="m 453.65625,684.03406 -6.42188,17.41406 12.86719,0 -6.44531,-17.41406 m -2.67188,-4.66406 5.36719,0 13.33594,34.99218 -4.92188,0 -3.1875,-8.97656 -15.77343,0 -3.1875,8.97656 -4.99219,0 13.35937,-34.99218" />
      <path
         id="path3933"
         style="font-size:48px"
         d="m 474.23437,679.37 4.75782,0 0,21.25781 c -10e-6,3.75001 0.67968,6.45313 2.03906,8.10937 1.35936,1.64063 3.56249,2.46094 6.60937,2.46094 3.03123,0 5.22654,-0.82031 6.58594,-2.46094 1.35935,-1.65624 2.03904,-4.35936 2.03906,-8.10937 l 0,-21.25781 4.75782,0 0,21.84375 c -3e-5,4.5625 -1.13284,8.00781 -3.39844,10.33593 -2.25003,2.32813 -5.57815,3.49219 -9.98438,3.49219 -4.42188,0 -7.76563,-1.16406 -10.03125,-3.49219 -2.25,-2.32812 -3.375,-5.77343 -3.375,-10.33593 l 0,-21.84375" />
      <path
         id="path3935"
         style="font-size:48px"
         d="m 530.90625,680.51843 0,4.61719 c -1.7969,-0.85934 -3.49221,-1.49997 -5.08594,-1.92187 -1.59377,-0.42185 -3.13283,-0.63279 -4.61719,-0.63282 -2.57813,3e-5 -4.57032,0.50003 -5.97656,1.5 -1.39063,1.00003 -2.08594,2.42191 -2.08594,4.26563 0,1.5469 0.46093,2.71877 1.38282,3.51562 0.93749,0.78127 2.70311,1.41409 5.29687,1.89844 l 2.85938,0.58594 c 3.53123,0.67189 6.13279,1.85939 7.80468,3.5625 1.68748,1.68751 2.53123,3.95314 2.53125,6.79687 -2e-5,3.39063 -1.14065,5.96094 -3.42187,7.71094 -2.26565,1.75 -5.59377,2.625 -9.98438,2.625 -1.65626,0 -3.42188,-0.1875 -5.29687,-0.5625 -1.85938,-0.375 -3.78907,-0.92969 -5.78906,-1.66406 l 0,-4.875 c 1.92187,1.07813 3.80468,1.89063 5.64843,2.4375 1.84374,0.54688 3.65624,0.82031 5.4375,0.82031 2.70311,0 4.78905,-0.53125 6.25782,-1.59375 1.46873,-1.06249 2.2031,-2.57812 2.20312,-4.54687 -2e-5,-1.71874 -0.53127,-3.06249 -1.59375,-4.03125 -1.04689,-0.96874 -2.77345,-1.6953 -5.17969,-2.17969 l -2.88281,-0.5625 c -3.53126,-0.70311 -6.08594,-1.80467 -7.66406,-3.30469 -1.57813,-1.49998 -2.36719,-3.58591 -2.36719,-6.25781 0,-3.09372 1.08594,-5.53122 3.25781,-7.3125 2.1875,-1.78122 5.19531,-2.67184 9.02344,-2.67188 1.64061,4e-5 3.31248,0.14848 5.01563,0.44532 1.7031,0.29691 3.44529,0.74222 5.22656,1.33593" />
      <path
         id="path3937"
         style="font-size:48px"
         d="m 535.55053,679.37321 29.60157,0 0,3.98437 -12.42188,0 0,31.00781 -4.75781,0 0,-31.00781 -12.42188,0 0,-3.98437" />
    </g>
    <g
       id="text2963"
       style="font-size:40px;font-style:normal;font-weight:normal;fill:#ffffff;fill-opacity:1;stroke:none;font-family:Bitstream Vera Sans"
       transform="translate(-392.49859,273.45275)">
      <path
         id="path3918"
         style="font-size:48px;font-weight:bold;fill:#ffffff;-inkscape-font-specification:Bitstream Charter Bold"
         d="m 416.42969,720.37 8.64843,0 6.04688,25.42968 6,-25.42968 8.69531,0 6,25.42968 6.04688,-25.42968 8.57812,0 -8.25,34.99218 -10.40625,0 -6.35156,-26.60156 -6.28125,26.60156 -10.40625,0 -8.32031,-34.99218" />
      <path
         id="path3920"
         style="font-size:48px;font-weight:bold;fill:#ffffff;-inkscape-font-specification:Bitstream Charter Bold"
         d="m 488.35937,726.27625 c -2.75001,2e-5 -4.88282,1.01565 -6.39843,3.04687 -1.51564,2.03127 -2.27345,4.89065 -2.27344,8.57813 -10e-6,3.67188 0.7578,6.52344 2.27344,8.55468 1.51561,2.03126 3.64842,3.04688 6.39843,3.04688 2.76561,0 4.90623,-1.01562 6.42188,-3.04688 1.5156,-2.03124 2.27341,-4.8828 2.27344,-8.55468 -3e-5,-3.68748 -0.75784,-6.54686 -2.27344,-8.57813 -1.51565,-2.03122 -3.65627,-3.04685 -6.42188,-3.04687 m 0,-6.53907 c 5.62498,4e-5 10.03122,1.60941 13.21875,4.82813 3.18747,3.21878 4.78122,7.66408 4.78125,13.33594 -3e-5,5.65626 -1.59378,10.09375 -4.78125,13.3125 -3.18753,3.21875 -7.59377,4.82812 -13.21875,4.82812 -5.60938,0 -10.01563,-1.60937 -13.21875,-4.82812 -3.1875,-3.21875 -4.78125,-7.65624 -4.78125,-13.3125 0,-5.67186 1.59375,-10.11716 4.78125,-13.33594 3.20312,-3.21872 7.60937,-4.82809 13.21875,-4.82813" />
      <path
         id="path3922"
         style="font-size:48px;font-weight:bold;fill:#ffffff;-inkscape-font-specification:Bitstream Charter Bold"
         d="m 525.97656,735.88562 c 1.89061,2e-5 3.24217,-0.35154 4.05469,-1.05469 0.8281,-0.7031 1.24216,-1.85935 1.24219,-3.46875 -3e-5,-1.59372 -0.41409,-2.73435 -1.24219,-3.42187 -0.81252,-0.68747 -2.16408,-1.03122 -4.05469,-1.03125 l -3.79687,0 0,8.97656 3.79687,0 m -3.79687,6.23438 0,13.24218 -9.02344,0 0,-34.99218 13.78125,0 c 4.60935,3e-5 7.98435,0.77347 10.125,2.32031 2.15622,1.5469 3.23434,3.99221 3.23437,7.33594 -3e-5,2.31252 -0.56253,4.21095 -1.6875,5.69531 -1.1094,1.48439 -2.78908,2.57814 -5.03906,3.28125 1.23435,0.28126 2.33591,0.92189 3.30469,1.92187 0.98435,0.98439 1.97653,2.48439 2.97656,4.5 l 4.89844,9.9375 -9.60938,0 -4.26562,-8.69531 c -0.8594,-1.74999 -1.7344,-2.9453 -2.625,-3.58594 -0.87502,-0.64061 -2.04689,-0.96092 -3.51563,-0.96093 l -2.55468,0" />
      <path
         id="path3924"
         style="font-size:48px;font-weight:bold;fill:#ffffff;-inkscape-font-specification:Bitstream Charter Bold"
         d="m 550.09375,720.37 9.02344,0 0,12.77343 13.00781,-12.77343 10.47656,0 -16.85156,16.57031 18.58594,18.42187 -11.29688,0 -13.92187,-13.78125 0,13.78125 -9.02344,0 0,-34.99218" />
      <path
         id="path3926"
         style="font-size:48px;font-weight:bold;fill:#ffffff;-inkscape-font-specification:Bitstream Charter Bold"
         d="m 611.66406,721.47156 0,7.40625 c -1.9219,-0.85935 -3.7969,-1.50779 -5.625,-1.94531 -1.82814,-0.43748 -3.5547,-0.65623 -5.17969,-0.65625 -2.15626,2e-5 -3.75001,0.2969 -4.78125,0.89062 -1.03126,0.59378 -1.54688,1.51565 -1.54687,2.76563 -10e-6,0.93752 0.34374,1.67189 1.03125,2.20312 0.70311,0.51565 1.96874,0.96096 3.79687,1.33594 l 3.84375,0.77344 c 3.89061,0.78127 6.65623,1.96876 8.29688,3.5625 1.64059,1.59376 2.46091,3.85938 2.46094,6.79687 -3e-5,3.85938 -1.14847,6.73438 -3.44532,8.625 -2.28127,1.875 -5.77345,2.8125 -10.47656,2.8125 -2.21876,0 -4.44532,-0.21094 -6.67969,-0.63281 -2.23438,-0.42188 -4.46875,-1.04688 -6.70312,-1.875 l 0,-7.61719 c 2.23437,1.18751 4.39062,2.08594 6.46875,2.69531 2.09374,0.59376 4.10936,0.89063 6.04687,0.89063 1.96874,0 3.47655,-0.32812 4.52344,-0.98438 1.04686,-0.65624 1.57029,-1.59374 1.57031,-2.8125 -2e-5,-1.09374 -0.35939,-1.93749 -1.07812,-2.53125 -0.70315,-0.59373 -2.11721,-1.12498 -4.24219,-1.59375 l -3.49219,-0.77343 c -3.50001,-0.74999 -6.0625,-1.9453 -7.6875,-3.58594 -1.60937,-1.64061 -2.41406,-3.85154 -2.41406,-6.63281 0,-3.48435 1.125,-6.16404 3.375,-8.03907 2.24999,-1.87496 5.48437,-2.81246 9.70313,-2.8125 1.92185,4e-5 3.89841,0.14848 5.92968,0.44532 2.03123,0.28128 4.13279,0.71097 6.30469,1.28906" />
    </g>
    <g
       style="fill:none;stroke:#1cfa26;stroke-width:2;stroke-miterlimit:4;stroke-opacity:1;stroke-dasharray:none"
       id="g2887"
       transform="matrix(1.4,0,0,1.4,177.32201,856.71155)"
       inkscape:label="Gear18">
      <path
         id="path2889"
         d="m 25.332,-2.597 1.448,-0.149 1.759,0.249 3.274,1.412 0,2.17 -3.274,1.412 -1.759,0.249 -1.448,-0.149 -0.639,3.626 1.411,0.356 1.568,0.836 2.593,2.446 -0.742,2.039 -3.559,0.207 -1.738,-0.368 -1.31,-0.634 -1.841,3.188 1.204,0.817 1.188,1.322 1.6,3.186 -1.394,1.662 -3.416,-1.023 -1.507,-0.94 -1.014,-1.044 -2.821,2.367 0.853,1.179 0.664,1.648 0.414,3.541 -1.879,1.085 -2.86,-2.129 -1.095,-1.399 -0.595,-1.328 -3.46,1.259 0.397,1.4 0.061,1.776 -0.823,3.469 -2.136,0.377 -1.959,-2.979 -0.551,-1.689 -0.105,-1.452 -3.682,0 -0.105,1.452 -0.551,1.689 -1.959,2.979 -2.136,-0.377 -0.823,-3.469 0.061,-1.776 0.397,-1.4 -3.46,-1.259 -0.595,1.328 -1.095,1.399 -2.86,2.129 -1.879,-1.085 0.414,-3.541 0.664,-1.648 0.853,-1.179 -2.821,-2.367 -1.014,1.044 -1.507,0.94 -3.416,1.023 -1.394,-1.662 1.6,-3.186 1.188,-1.322 1.204,-0.817 -1.841,-3.188 -1.31,0.634 -1.738,0.368 -3.559,-0.207 -0.742,-2.039 2.593,-2.446 1.568,-0.836 1.411,-0.356 -0.639,-3.626 -1.448,0.149 -1.759,-0.249 -3.274,-1.412 0,-2.17 3.274,-1.412 1.759,-0.249 1.448,0.149 0.639,-3.626 -1.411,-0.356 -1.568,-0.836 -2.593,-2.446 0.742,-2.039 3.559,-0.207 1.738,0.368 1.31,0.634 1.841,-3.188 -1.204,-0.817 -1.188,-1.322 -1.6,-3.186 1.394,-1.662 3.416,1.023 1.507,0.94 1.014,1.044 2.821,-2.367 -0.853,-1.179 -0.664,-1.648 -0.414,-3.541 1.879,-1.085 2.86,2.129 1.095,1.399 0.595,1.328 3.46,-1.259 -0.397,-1.4 -0.061,-1.776 0.823,-3.469 2.136,-0.377 1.959,2.979 0.551,1.689 0.105,1.452 3.682,0 0.105,-1.452 0.551,-1.689 1.959,-2.979 2.136,0.377 0.823,3.469 -0.061,1.776 -0.397,1.4 3.46,1.259 0.595,-1.328 1.095,-1.399 2.86,-2.129 1.879,1.085 -0.414,3.541 -0.664,1.648 -0.853,1.179 2.821,2.367 1.014,-1.044 1.507,-0.94 3.416,-1.023 1.394,1.662 -1.6,3.186 -1.188,1.322 -1.204,0.817 1.841,3.188 1.31,-0.634 1.738,-0.368 3.559,0.207 0.742,2.039 -2.593,2.446 -1.568,0.836 -1.411,0.356 z"
         style="fill:none;stroke:#1cfa26;stroke-width:2;stroke-miterlimit:4;stroke-opacity:1;stroke-dasharray:none" />
    </g>
    <g
       style="fill:none;stroke:#1cfa26;stroke-width:2;stroke-miterlimit:4;stroke-opacity:1;stroke-dasharray:none"
       inkscape:label="Gear14"
       transform="matrix(1.4,0,0,1.4,217.92201,947.01155)"
       id="g2909">
      <path
         style="fill:none;stroke:#1cfa26;stroke-width:2;stroke-miterlimit:4;stroke-opacity:1;stroke-dasharray:none"
         d="m 18.945,-2.421 1.824,-0.233 1.373,0.159 3.302,1.467 0,2.056 -3.302,1.467 -1.373,0.159 -1.824,-0.233 -0.826,3.617 1.745,0.582 1.167,0.739 2.339,2.755 -0.892,1.852 -3.612,-0.111 -1.305,-0.452 -1.543,-1.002 -2.313,2.901 1.319,1.281 0.732,1.173 0.912,3.496 -1.607,1.282 -3.206,-1.668 -0.981,-0.973 -0.955,-1.572 -3.343,1.61 0.633,1.727 0.15,1.373 -0.695,3.546 -2.004,0.458 -2.165,-2.893 -0.461,-1.303 -0.179,-1.831 -3.71,0 -0.179,1.831 -0.461,1.303 -2.165,2.893 -2.004,-0.458 -0.695,-3.546 0.15,-1.373 0.633,-1.727 -3.343,-1.61 -0.955,1.572 -0.981,0.973 -3.206,1.668 -1.607,-1.282 0.912,-3.496 0.732,-1.173 1.319,-1.281 -2.313,-2.901 -1.543,1.002 -1.305,0.452 -3.612,0.111 -0.892,-1.852 2.339,-2.755 1.167,-0.739 1.745,-0.582 -0.826,-3.617 -1.824,0.233 -1.373,-0.159 -3.302,-1.467 0,-2.056 3.302,-1.467 1.373,-0.159 1.824,0.233 0.826,-3.617 -1.745,-0.582 -1.167,-0.739 -2.339,-2.755 0.892,-1.852 3.612,0.111 1.305,0.452 1.543,1.002 2.313,-2.901 -1.319,-1.281 -0.732,-1.173 -0.912,-3.496 1.607,-1.282 3.206,1.668 0.981,0.973 0.955,1.572 3.343,-1.61 -0.633,-1.727 -0.15,-1.373 0.695,-3.546 2.004,-0.458 2.165,2.893 0.461,1.303 0.179,1.831 3.71,0 0.179,-1.831 0.461,-1.303 2.165,-2.893 2.004,0.458 0.695,3.546 -0.15,1.373 -0.633,1.727 3.343,1.61 0.955,-1.572 0.981,-0.973 3.206,-1.668 1.607,1.282 -0.912,3.496 -0.732,1.173 -1.319,1.281 2.313,2.901 1.543,-1.002 1.305,-0.452 3.612,-0.111 0.892,1.852 -2.339,2.755 -1.167,0.739 -1.745,0.582 z"
         id="path2911" />
    </g>
    <g
       style="fill:none;stroke:#1cfa26;stroke-width:2;stroke-miterlimit:4;stroke-opacity:1;stroke-dasharray:none"
       id="g2935"
       transform="matrix(1.4,0,0,1.4,227.32201,893.01155)"
       inkscape:label="Gear6">
      <path
         id="path2937"
         d="m 6.124,-1.739 2.508,-0.712 0.592,-0.021 3.486,1.724 0,1.496 L 9.224,2.472 8.632,2.451 6.124,1.739 4.568,4.434 6.439,6.25 6.752,6.752 7.003,10.634 5.707,11.382 2.472,9.224 2.193,8.701 1.556,6.173 l -3.112,0 -0.637,2.528 -0.279,0.523 -3.235,2.158 -1.296,-0.748 0.251,-3.882 0.313,-0.502 1.871,-1.816 -1.556,-2.695 -2.508,0.712 -0.592,0.021 -3.486,-1.724 0,-1.496 3.486,-1.724 0.592,0.021 2.508,0.712 1.556,-2.695 -1.871,-1.816 -0.313,-0.502 -0.251,-3.882 1.296,-0.748 3.235,2.158 0.279,0.523 0.637,2.528 3.112,0 0.637,-2.528 0.279,-0.523 3.235,-2.158 1.296,0.748 -0.251,3.882 -0.313,0.502 -1.871,1.816 z"
         style="fill:none;stroke:#1cfa26;stroke-width:2;stroke-miterlimit:4;stroke-opacity:1;stroke-dasharray:none" />
    </g>
  </g>
</svg>
